<?xml version="1.0" encoding="UTF-8"?>
<svg width="104px" height="97px" viewBox="0 0 104 97" version="1.1" xmlns="http://www.w3.org/2000/svg" xmlns:xlink="http://www.w3.org/1999/xlink">
    <!-- Generator: Sketch 49.3 (51167) - http://www.bohemiancoding.com/sketch -->
    <title>empty</title>
    <desc>Created with Sketch.</desc>
    <defs></defs>
    <g id="Page-1" stroke="none" stroke-width="1" fill="none" fill-rule="evenodd">
        <g id="无数据" transform="translate(-803.000000, -2084.000000)">
            <g id="Group-2" transform="translate(78.000000, 1724.000000)">
                <g id="暂无数据" transform="translate(722.000000, 351.000000)">
                    <g id="暂无数据icon" transform="translate(1.000000, 0.000000)">
                        <g id="empty" transform="translate(2.000000, 9.000000)">
                            <g id="无数据">
                                <path d="M101,91.8823052 C101,94.7167208 81.2822241,97 56.9418703,97 C32.6015164,97 12.8837405,94.7035985 12.8837405,91.8823052 C12.8837405,89.0478896 32.6015164,86.7646104 56.9418703,86.7646104 C81.2822241,86.7383658 101,89.021645 101,91.8823052 Z M15.3386689,38.067776 L12.5834035,38.067776 L12.5834035,35.2989719 L10.7552654,35.2989719 L10.7552654,38.067776 L8,38.067776 L8,39.9180195 L10.7552654,39.9180195 L10.7552654,42.6868236 L12.5834035,42.6868236 L12.5834035,39.9180195 L15.3386689,39.9180195 L15.3386689,38.067776 Z M20.3138163,1.8764881 L18.4726201,1.8764881 L18.4726201,0 L16.6314238,0 L16.6314238,1.8764881 L14.8032856,1.8764881 L14.8032856,3.7267316 L16.6314238,3.7267316 L16.6314238,5.57697511 L18.4726201,5.57697511 L18.4726201,3.7267316 L20.3138163,3.7267316 L20.3138163,1.8764881 Z M99.6550126,41.5714286 L96.8997473,41.5714286 L96.8997473,38.7763799 L95.058551,38.7763799 L95.058551,41.545184 L92.3032856,41.545184 L92.3032856,43.3954275 L95.058551,43.3954275 L95.058551,46.1642316 L96.8997473,46.1642316 L96.8997473,43.3954275 L99.6550126,43.3954275 L99.6550126,41.5714286 Z" id="Shape" fill="#D7D8D8" fill-rule="nonzero"></path>
                                <path d="M97.5995492,68.1432225 L87.5980233,68.1432225 C88.044872,67.4810151 88.2682964,66.7279166 88.2682964,65.9098957 L88.2682964,8.06413535 C88.2682964,5.83080858 86.4151885,4 84.1546596,4 L34.8698739,4 C32.609345,4 30.7562371,5.83080858 30.7562371,8.06413535 L30.7562371,14.0110171 L32.6224876,14.0110171 L32.6224876,8.06413535 C32.6224876,6.83061184 33.6476112,5.83080858 34.8830165,5.83080858 L84.1678022,5.83080858 C85.4163501,5.83080858 86.4283311,6.8435963 86.4283311,8.06413535 L86.4283311,65.9098957 C86.4283311,67.1434192 85.4032075,68.1432225 84.1678022,68.1432225 L77.2285044,68.1432225 C76.7159426,68.1432225 76.3085217,68.5587252 76.3085217,69.0521346 C76.3085217,69.2988393 76.40052,69.5195751 76.5582313,69.7143419 C76.7159426,69.8701554 76.9656522,70 77.1890766,70 L97.6126918,70 C98.1252535,70 98.5326744,69.5844973 98.5326744,69.0910879 C98.5326744,68.8443832 98.4406762,68.5846941 98.243537,68.4288806 C98.0463979,68.2730671 97.8624013,68.1432225 97.5995492,68.1432225 Z M100.306927,24.9049774 C98.8086692,24.9049774 97.4418378,24.0220342 96.863563,22.6326972 C96.2852882,21.2433602 96.6138534,19.6722408 97.6652622,18.6334842 C98.716671,17.5947275 100.346355,17.2831005 101.713186,17.8414322 C103.119445,18.4127484 104,19.763132 104,21.2433602 C104,22.2171946 103.618864,23.16506 102.922306,23.8272674 C102.225748,24.5024592 101.305765,24.9049774 100.306927,24.9049774 Z M100.306927,19.3995672 C99.5446554,19.3995672 98.8743823,19.8410388 98.5852449,20.529215 C98.2961075,21.2173913 98.4538188,22.0094432 99.0058084,22.541806 C99.5446554,23.0741688 100.346355,23.2299823 101.042913,22.9573087 C101.739471,22.6716506 102.18632,22.0094432 102.18632,21.2563447 C102.160035,20.217588 101.33205,19.4255361 100.306927,19.3995672 Z M4.70758501,20.1786347 C2.82819185,20.2046036 1.10651,19.1139091 0.370523863,17.4129451 C-0.36546227,15.7119811 0.015673406,13.725359 1.32993436,12.3749754 C2.6310527,11.0245918 4.64187196,10.6480425 6.38983903,11.3362188 C8.13780609,12.024395 9.29435573,13.725359 9.29435573,15.5821365 C9.29435573,18.0751525 7.25725126,20.1266968 4.70758501,20.1786347 Z M4.70758501,12.816447 C3.56417798,12.7904781 2.53905444,13.4526854 2.09220571,14.4524887 C1.64535699,15.4652764 1.86878135,16.6858155 2.6310527,17.4778674 C3.39332405,18.2699193 4.64187196,18.516624 5.69328072,18.1011214 C6.74468948,17.6856187 7.44124779,16.6858155 7.44124779,15.5561676 C7.4543904,14.0759394 6.24527032,12.8813693 4.70758501,12.816447 Z" id="Shape" fill="#D8D8D8" fill-rule="nonzero"></path>
                                <path d="M74.8313189,15 L27.1942818,15 C26.3363135,15 25.5311433,15.3548681 24.9239658,15.9200283 C24.3167883,16.4983318 24,17.3263573 24,18.1806693 L24,79.9802851 L71.1882538,79.9802851 C71.3202489,80.0065716 71.452244,80.0065716 71.5710396,79.9802851 L74.8049199,79.9802851 C76.560455,79.9802851 77.9728027,78.5476696 77.9992017,76.7996158 L77.9992017,18.1806693 C78.0388002,16.4326155 76.6000535,15 74.8313189,15 Z M76.1512701,76.7338995 C76.1512701,77.4699222 75.5440926,78.0350824 74.8445185,78.0350824 L27.1942818,78.0350824 C26.837895,78.0350824 26.4947077,77.9036498 26.2307175,77.6539278 C25.9799267,77.4042058 25.8479316,77.0756243 25.8479316,76.7338995 L25.8479316,18.1806693 C25.8479316,17.4446466 26.4551091,16.8400566 27.1942818,16.8400566 L74.8313189,16.8400566 C75.1877058,16.8400566 75.5308931,16.9714892 75.7552848,17.2212112 C75.9796764,17.4709332 76.1380706,17.8258012 76.1380706,18.1806693 L76.1380706,76.7338995 L76.1512701,76.7338995 Z" id="Shape" fill="#D7D8D8" fill-rule="nonzero"></path>
                                <path d="M74.8313189,15 L27.1942818,15 C26.3363135,15 25.5311433,15.3548681 24.9239658,15.9200283 C24.3167883,16.4983318 24,17.3263573 24,18.1806693 L24,79.9802851 L71.1882538,79.9802851 C71.3202489,80.0065716 71.452244,80.0065716 71.5710396,79.9802851 L74.8049199,79.9802851 C76.560455,79.9802851 77.9728027,78.5476696 77.9992017,76.7996158 L77.9992017,18.1806693 C78.0388002,16.4326155 76.6000535,15 74.8313189,15 Z M76.1512701,76.7338995 C76.1512701,77.4699222 75.5440926,78.0350824 74.8445185,78.0350824 L27.1942818,78.0350824 C26.837895,78.0350824 26.4947077,77.9036498 26.2307175,77.6539278 C25.9799267,77.4042058 25.8479316,77.0756243 25.8479316,76.7338995 L25.8479316,18.1806693 C25.8479316,17.4446466 26.4551091,16.8400566 27.1942818,16.8400566 L74.8313189,16.8400566 C75.1877058,16.8400566 75.5308931,16.9714892 75.7552848,17.2212112 C75.9796764,17.4709332 76.1380706,17.8258012 76.1380706,18.1806693 L76.1380706,76.7338995 L76.1512701,76.7338995 Z" id="Shape" fill="#CCCCCC" fill-rule="nonzero"></path>
                                <path d="M76,75.7029639 C76,76.4366409 75.3964839,77 74.7011283,77 L27.3382314,77 C26.9839937,77 26.6428759,76.8689863 26.3804776,76.6200601 C26.1311992,76.371134 26,76.0435997 26,75.7029639 L26,17.3363402 C26,16.6026632 26.6035161,16 27.3382314,16 L74.6880084,16 C75.0422461,16 75.3833639,16.1310137 75.6064025,16.3799399 C75.8294411,16.628866 75.9868801,16.9826031 75.9868801,17.3363402 L75.9868801,75.7029639 L76,75.7029639 Z" id="Path" fill="#FBFBFB"></path>
                                <path d="M67.4791249,81.8475806 L55.8160541,70.0556854 C55.398584,69.6467942 54.8376085,69.4489436 54.2374953,69.5412739 L53.7678414,68.9345321 C58.3861044,64.238878 58.4774259,56.7205556 54.0157143,51.8930012 C49.5540026,47.0654468 42.1308624,46.6829357 37.1864509,50.9960785 C32.2550854,55.3092214 31.5897424,62.8275438 35.6731218,67.9716592 C39.7565012,73.1157745 47.1535495,74.0786474 52.3980176,70.1480157 L52.8676715,70.6888073 C52.6197986,71.3614993 52.7763499,72.1660917 53.2851416,72.6673132 L64.8568909,84.4592084 C65.1960853,84.8021494 65.6657392,85 66.148439,85 C66.8790117,85 67.5704465,84.5515387 67.8574572,83.8524666 C68.1444679,83.1665845 67.9879166,82.3883722 67.4791249,81.8475806 Z M35.0338708,60.5192869 C35.0338708,54.8607601 39.5608121,50.2838164 45.1575206,50.2838164 C50.7542291,50.2838164 55.2811705,54.8607601 55.2811705,60.5192869 C55.2811705,66.1778138 50.7542291,70.7547575 45.1575206,70.7547575 C39.5608121,70.7283774 35.0338708,66.1514338 35.0338708,60.5192869 Z" id="Shape" fill="#CCCCCC" fill-rule="nonzero"></path>
                                <path d="M56.4321097,25.8315252 L33.9287926,25.8315252 C33.4113224,25.8315252 33,25.4128909 33,24.9157626 C33,24.405552 33.4113224,24 33.9287926,24 L56.4453782,24 C56.9628483,24 57.3741707,24.4186343 57.3741707,24.9157626 C57.3741707,25.4259732 56.9495798,25.8315252 56.4321097,25.8315252 Z M52.677134,40.2613274 L33.9287926,40.2613274 C33.4113224,40.2613274 33,39.842693 33,39.3455648 C33,38.8353542 33.4113224,38.4298022 33.9287926,38.4298022 L52.677134,38.4298022 C53.1946042,38.4298022 53.6059266,38.8484365 53.6059266,39.3455648 C53.6059266,39.8557754 53.1946042,40.2613274 52.677134,40.2613274 Z M62.0712074,33.0268028 L33.9287926,33.0268028 C33.4113224,33.0268028 33,32.6212508 33,32.1110402 C33,31.6008296 33.4113224,31.1952776 33.9287926,31.1952776 L62.0712074,31.1952776 C62.5886776,31.1952776 63,31.6139119 63,32.1110402 C63,32.6212508 62.5754091,33.0268028 62.0712074,33.0268028 Z M40.9610792,65 C40.7089783,65 40.4834144,64.9084237 40.3241928,64.7514359 C37.391862,61.8602425 37.391862,57.2029355 40.3241928,54.3248245 C40.4834144,54.1285897 40.7487837,54.0370134 40.9610792,54.0370134 C41.21318,54.0370134 41.4387439,54.1285897 41.611234,54.3248245 C41.8102609,54.4818124 41.9031402,54.7434588 41.9031402,54.992023 C41.9031402,55.2405871 41.8102609,55.4629866 41.611234,55.6592214 C39.4219372,57.8178047 39.4219372,61.2977026 41.611234,63.4955329 C41.8633348,63.744097 41.9694825,64.1627313 41.8102609,64.5159541 C41.6775763,64.7383535 41.3193277,64.960753 40.9610792,65 Z" id="Shape" fill="#CCCCCC" fill-rule="nonzero"></path>
                                <path d="M77.0201711,70 L77.0201711,19.8806209 C77.0201711,17.6714819 75.2293101,15.8806209 73.0201711,15.8806209 L32,15.8806209 L32,8 C32,7.44771525 32.4477153,7 33,7 L85,7 C85.5522847,7 86,7.44771525 86,8 L86,69 C86,69.5522847 85.5522847,70 85,70 L77.0201711,70 Z" id="Combined-Shape" fill="#E2E2E2" opacity="0.339673913"></path>
                            </g>
                        </g>
                    </g>
                </g>
            </g>
        </g>
    </g>
</svg>