<?xml version="1.0" encoding="UTF-8"?>
<svg width="28px" height="24px" viewBox="0 0 28 24" version="1.1" xmlns="http://www.w3.org/2000/svg" xmlns:xlink="http://www.w3.org/1999/xlink">
    <!-- Generator: Sketch 49.3 (51167) - http://www.bohemiancoding.com/sketch -->
    <title>沟通</title>
    <desc>Created with Sketch.</desc>
    <defs></defs>
    <g id="Page-1" stroke="none" stroke-width="1" fill="none" fill-rule="evenodd">
        <g id="无数据" transform="translate(-307.000000, -2702.000000)">
            <g id="Group-7" transform="translate(159.000000, 2193.000000)">
                <g id="下拉框-copy" transform="translate(66.000000, 0.000000)">
                    <g id="沟通" transform="translate(82.000000, 507.000000)">
                        <g>
                            <rect id="Rectangle-9" x="0" y="0" width="28" height="28"></rect>
                            <g id="无数据" transform="translate(0.000000, 2.000000)" fill="#CCCCCC" fill-rule="nonzero">
                                <path d="M27.9632354,14.5610684 L23.6614023,8.22091184 C23.2519956,7.61409113 22.5656503,7.25032978 21.8313055,7.25096494 L6.13330885,7.25096494 C5.3996642,7.2531154 4.71454979,7.61622438 4.30321202,8.22091184 L0.0133222037,14.5610917 L0.00147245409,14.5610917 L0.00147245409,21.894832 C0.00161440476,22.9596239 0.868752665,23.8227765 1.93847412,23.8229307 L26.0618297,23.8229307 C27.1315512,23.8227765 27.9986894,22.9596239 27.9988314,21.894832 L27.9988314,14.5610917 L27.9632354,14.5610917 L27.9632354,14.5610684 Z M17.7196761,14.5610684 C17.6311831,14.5607579 17.5462249,14.5956139 17.4836527,14.6579021 C17.4210805,14.7201903 17.3860692,14.8047595 17.3863873,14.8928446 L17.3863873,15.1885375 C17.3863873,17.0503744 15.8700826,18.5596915 13.999626,18.5596915 C12.1291694,18.5596915 10.6128648,17.0503744 10.6128648,15.1885375 L10.6128648,14.8928446 C10.6131767,14.8047635 10.5781626,14.7202003 10.5155911,14.6579171 C10.4530196,14.595634 10.3680649,14.5607812 10.279576,14.5610917 L1.16602003,14.5610917 L5.09899165,8.75318219 C5.33161125,8.41233014 5.71891969,8.2085088 6.13288815,8.20909344 L21.8432721,8.20909344 C22.2579285,8.20574579 22.6464725,8.4102127 22.877192,8.75318219 L26.8101636,14.5728869 L17.7198164,14.5728869 L17.7196761,14.5610684 Z M8.41495826,5.06260542 C8.27237974,5.06542345 8.13489667,5.00982571 8.03469115,4.90882654 L5.87184307,2.74424342 C5.72670826,2.6111044 5.66650071,2.40952915 5.71498752,2.21909 C5.76347432,2.02865085 5.91286413,1.87994948 6.10418494,1.83168612 C6.29550575,1.78342276 6.49801421,1.84335285 6.63176962,1.98781884 L8.79517863,4.15184361 C8.89757432,4.25129115 8.95531343,4.38766571 8.95531343,4.53006753 C8.95531343,4.67246935 8.89757432,4.80884391 8.79517863,4.90829145 C8.69197356,5.00478408 8.55649861,5.05977204 8.41493489,5.06262868 L8.41495826,5.06260542 Z M19.5734958,5.06260542 C19.4309334,5.06541061 19.2934697,5.00981387 19.1932755,4.90882654 C19.0908798,4.80937899 19.0331407,4.67300444 19.0331407,4.53060262 C19.0331407,4.3882008 19.0908798,4.25182624 19.1932755,4.1523787 L21.3560067,1.99961398 C21.5681452,1.80500932 21.8967543,1.81167969 22.1007459,2.01473127 C22.3047376,2.21778286 22.3114388,2.54487767 22.1159332,2.75603856 L19.9537396,4.90882654 C19.8504568,5.00513254 19.7149907,5.05993457 19.5734958,5.06265195 L19.5734958,5.06260542 Z M13.9882905,4.31746416 C13.846279,4.31806729 13.7099089,4.26218022 13.6094907,4.16222476 C13.5090724,4.0622693 13.4529266,3.92652763 13.4535326,3.78517055 L13.4535326,0.532293608 C13.4535326,0.238315966 13.6929518,5.40028167e-17 13.9882905,0 C14.2836291,-5.40028167e-17 14.5230484,0.238315966 14.5230484,0.532293608 L14.5230484,3.78519382 C14.5236543,3.92655089 14.4675085,4.06229257 14.3670903,4.16224802 C14.2666721,4.26220348 14.130302,4.31809055 13.9882905,4.31748743 L13.9882905,4.31746416 Z" id="Shape"></path>
                            </g>
                        </g>
                    </g>
                </g>
            </g>
        </g>
    </g>
</svg>