<?xml version="1.0" encoding="UTF-8"?>
<svg width="66px" height="72px" viewBox="0 0 66 72" version="1.1" xmlns="http://www.w3.org/2000/svg" xmlns:xlink="http://www.w3.org/1999/xlink">
    <!-- Generator: Sketch 49.3 (51167) - http://www.bohemiancoding.com/sketch -->
    <title>暂无数据icon</title>
    <desc>Created with Sketch.</desc>
    <defs></defs>
    <g id="Symbols" stroke="none" stroke-width="1" fill="none" fill-rule="evenodd">
        <g id="empty" transform="translate(-26.000000, 0.000000)">
            <g id="无数据">
                <g id="暂无数据icon" transform="translate(20.000000, 0.000000)">
                    <g id="消息">
                        <g>
                            <g transform="translate(4.000000, 0.000000)">
                                <g id="沟通">
                                    <rect id="Rectangle-9" x="0" y="12" width="56" height="56"></rect>
                                    <g id="暂无数据" transform="translate(2.000000, 0.000000)" fill-rule="nonzero">
                                        <path d="M61.8958208,31.2325067 L61.032316,31.2325067 C60.7145107,31.2182772 60.4145633,31.3797208 60.2514102,31.6528211 C60.0882571,31.9259214 60.0882571,32.2665568 60.2514102,32.5396571 C60.4145633,32.8127574 60.7145107,32.974201 61.032316,32.9599715 L61.8958208,32.9599715 L61.8958208,33.8238406 C61.9172788,34.2852013 62.2975571,34.6482324 62.7594165,34.648269 C63.2213817,34.6483785 63.6018226,34.2853069 63.6232856,33.8238406 L63.6232856,32.9599715 L64.4867903,32.9599715 C64.9487929,32.9392858 65.3127152,32.5587046 65.3127152,32.0962391 C65.3127152,31.6337736 64.9487929,31.2531925 64.4867903,31.2325067 L63.6232856,31.2325067 L63.6232856,30.3690019 C63.6019138,29.9074941 63.2214189,29.544371 62.7594165,29.5445736 C62.2975012,29.5444707 61.9171422,29.907579 61.8958208,30.3690019 L61.8958208,31.2325067 Z M0.0595012368,16.5504672 C0.0595881482,17.1059864 0.35591006,17.6192986 0.836928705,17.8971884 C1.31805783,18.17473 1.91065459,18.17473 2.39178371,17.8971884 C2.87285118,17.6193355 3.16921538,17.1060103 3.16930234,16.5504672 C3.16932444,15.9949663 2.87291794,15.481672 2.39178371,15.2040192 C1.91073004,14.9261959 1.31798237,14.9261959 0.836928705,15.2040192 C0.355843327,15.4817089 0.0594791379,15.9949902 0.0595012368,16.5504672 Z" id="Shape" fill="#D8D8D8"></path>
                                        <polygon id="Shape" fill="#ECECEC" points="52.7017727 55.4146465 44.5665199 35.723551 11.5161502 35.723551 3.38098847 55.4146465 3.16820931 55.4146465 3.16820931 71.9967607 52.9138232 71.9967607 52.9138232 55.4146465"></polygon>
                                        <path d="M52.9145519,71.9967607 L3.16930234,71.9967607 L3.16930234,55.4146465 L3.3820815,55.4146465 L11.5172432,35.723551 L44.5676129,35.723551 L52.7027747,55.4146465 L52.8576226,55.4146465 L52.9155539,55.8808297 L52.9155539,71.9967607 L52.9145519,71.9967607 Z M4.10112225,71.0638477 L51.9809102,71.0638477 L51.9584117,56.057994 L43.9427562,36.6564639 L12.1391853,36.6564639 L4.10112225,56.1131016 L4.10112225,71.0638477 Z" id="Shape" fill="#CCCCCC"></path>
                                        <path d="M11.6598855,49.0542238 L4.06268355,70.7599815 L5.04114009,71.1022865 L12.6384331,49.3965287 L11.6598855,49.0542238 Z M44.423149,49.0542238 L52.0199865,70.7599815 L51.04153,71.1022865 L43.4446925,49.3965287 L44.423149,49.0542238 Z" id="Shape" fill="#CCCCCC"></path>
                                        <path d="M22.8590315,55.4146465 L3.16820931,55.4146465 L3.16820931,71.9967607 L52.9138232,71.9967607 L52.9138232,55.4146465 L33.2226366,55.4146465 C33.247628,57.2824171 32.2656298,59.0191401 30.6522527,59.9605251 C29.0385908,60.9016397 27.0433506,60.9016397 25.4296887,59.9605251 C23.8162206,59.0191958 22.8341156,57.2824686 22.8590315,55.4146465 Z" id="Shape" fill="#FBFBFB"></path>
                                        <path d="M52.9145519,71.9967607 L3.16930234,71.9967607 L3.16930234,55.4146465 L22.8422715,55.4146465 L22.8778866,55.8427554 C23.0952201,58.5084163 25.3645616,60.5966768 28.0424281,60.5966768 C30.7212967,60.5966768 32.989545,58.5095094 33.2069697,55.8427554 L33.2414916,55.4146465 L52.9155539,55.4146465 L52.9155539,71.9967607 L52.9145519,71.9967607 Z M4.10112225,71.0638477 L51.9809102,71.0638477 L51.9809102,56.3472862 L34.083682,56.3472862 C33.6310707,59.2855705 31.0550394,61.5295897 28.0406063,61.5295897 C25.0259001,61.5295897 22.4497777,59.2862081 21.9972575,56.3472862 L4.10112225,56.3472862 L4.10112225,71.0638477 Z" id="Shape" fill="#CCCCCC"></path>
                                        <path d="M48.7686363,17.0692076 L56.0231689,20.1779157 L60.1683559,4.63191605 L48.7686363,17.0692076 Z M60.1683559,4.63191605 L40.4775336,13.9594065 L46.6960428,17.0692076 L60.1683559,4.63191605 Z M48.7686363,18.1053222 L48.7686363,23.2866237 L51.8784374,20.1779157 L48.7686363,18.1053222 Z" id="Shape" fill="#D8D8D8"></path>
                                        <polygon id="Shape" fill="#E2E2E2" points="11.4592209 35.723551 44.6234493 35.723551 44.6234493 50.233436 11.4592209 50.233436"></polygon>
                                        <path d="M44.6227206,50.232343 L11.4592209,50.232343 L11.4592209,35.723551 L44.6227206,35.723551 L44.6227206,50.232343 Z M12.3922249,49.2997943 L43.6898075,49.2997943 L43.6898075,36.6564639 L12.3922249,36.6564639 L12.3922249,49.2997943 Z" id="Shape" fill="#CCCCCC"></path>
                                        <path d="M20.5003338,46.0238506 C21.1236662,45.7124043 21.7415711,45.3902119 22.353772,45.0574175 C22.5963356,44.9162071 22.6825894,44.6076793 22.5484249,44.3611486 C22.414011,44.1145087 22.1076811,44.0196942 21.857439,44.1472763 C21.2558285,44.474413 20.6484872,44.7908986 20.035699,45.096585 C19.7846179,45.2275204 19.684967,45.5356407 19.8118237,45.788807 C19.9386805,46.0419734 20.2451485,46.1465954 20.5003338,46.0238506 Z M24.1744188,44.0184793 C24.7747248,43.6590674 25.3659138,43.2846427 25.9474272,42.8955588 C26.1012382,42.7923999 26.1883307,42.6150199 26.1758979,42.4302363 C26.1634651,42.2454526 26.0533958,42.0813383 25.8871521,41.9997136 C25.7209084,41.9180889 25.5237466,41.9313545 25.3699356,42.0345135 C24.8027234,42.4138667 24.226146,42.7790264 23.6407402,43.1296524 C23.4050889,43.2811864 23.3323065,43.5924367 23.4763281,43.8327529 C23.6206364,44.0730905 23.9297593,44.1553324 24.1744188,44.0184793 Z M27.667423,41.6662487 C28.2280091,41.2393896 28.7718421,40.7909658 29.297698,40.3219868 C29.435612,40.1986843 29.4972687,40.0111717 29.4594426,39.8300833 C29.4216165,39.6489949 29.2900542,39.5018424 29.114314,39.4440566 C28.9385738,39.3862708 28.7453548,39.4266308 28.6074407,39.5499334 C28.1224935,39.9835986 27.599472,40.4145312 27.0386494,40.842549 C26.8261869,41.0205638 26.7913925,41.3342353 26.959677,41.5544849 C27.1277591,41.7749859 27.4395734,41.8242261 27.667423,41.6662487 Z M30.8152073,38.8304373 C31.2991584,38.3061337 31.7493352,37.7516346 32.1630216,37.1702857 C32.3102007,36.937201 32.2492526,36.6296992 32.0242961,36.4703733 C31.7994325,36.3109959 31.4891808,36.355369 31.3180075,36.5713887 C30.9297381,37.1170767 30.506992,37.6373937 30.0523537,38.1291585 C29.959186,38.2303357 29.9101562,38.3644563 29.9161046,38.5018669 C29.922053,38.6392775 29.9824895,38.7686593 30.084052,38.8614069 C30.2957382,39.0553311 30.6223761,39.0414859 30.8152073,38.8304373 Z M33.2927736,35.2684804 C33.2157734,35.4410359 33.0510083,35.5580489 32.862718,35.5738975 C32.6744276,35.5897461 32.4924211,35.5019212 32.3876603,35.3446648 C32.2828995,35.1874083 32.2719695,34.985616 32.3591319,34.8179641 C32.6537072,34.2060417 32.8803317,33.5904758 33.0390052,32.9691713 C33.1156785,32.6987218 33.393879,32.538612 33.6662417,32.6081845 C33.9386043,32.677757 34.1059366,32.9516741 34.0435126,33.2257634 C33.8616418,33.9298852 33.6101565,34.614162 33.2927736,35.2684804 Z M34.3028373,31.0443209 C34.2608991,30.2464812 33.9973558,29.4761334 33.5418054,28.8197944 C33.3785123,28.5848655 33.0556896,28.5267933 32.8207608,28.6900865 C32.5858319,28.8533796 32.5277597,29.1762023 32.6910529,29.4111311 C33.0298054,29.8979 33.227282,30.4640057 33.2685445,31.1087195 C33.2968803,31.385641 33.5388044,31.5907885 33.8166339,31.5734899 C34.0944633,31.5561914 34.3090713,31.3226186 34.3028373,31.0443209 Z M31.7545875,27.284432 C31.0853042,26.9401583 30.3641082,26.7079343 29.6196905,26.5969984 C29.4354588,26.5664444 29.2490233,26.6372753 29.1315553,26.7824515 C29.0139057,26.9274724 28.9834518,27.1246052 29.0518542,27.2983683 C29.1204364,27.4722038 29.2770913,27.5958165 29.46211,27.6220914 C30.0934712,27.7150588 30.7052957,27.9110101 31.2731927,28.2021334 C31.4380433,28.297387 31.6418397,28.2946245 31.8040478,28.1949376 C31.9661436,28.0952766 32.0607498,27.9149412 32.0506202,27.7249287 C32.0401726,27.5349247 31.926567,27.3658796 31.7545875,27.284432 Z M27.3187419,26.609113 C26.4334674,26.7649628 25.6788116,27.0977036 25.1603445,27.5904843 C25.0258878,27.7176381 24.9695846,27.9069245 25.0126877,28.0868935 C25.0557907,28.2668625 25.1917355,28.410105 25.369207,28.4625511 C25.5465411,28.51523 25.7385082,28.4692524 25.8727359,28.341952 C26.2292504,28.0042925 26.7989084,27.7527102 27.4987298,27.6295606 C27.6808724,27.5971729 27.8320217,27.4703129 27.8955048,27.2965465 C27.9587428,27.1226241 27.9244292,26.9281782 27.805481,26.7864059 C27.6865328,26.6446336 27.5010066,26.5770564 27.3187419,26.609113 Z M24.530569,30.060126 C24.7134717,30.6859847 25.1098823,31.3435417 25.718981,32.0291535 C25.8102145,32.1318412 25.9385098,32.1940725 26.0756339,32.2021527 C26.212758,32.2102329 26.3474741,32.1634998 26.4501364,32.0722377 C26.6639694,31.8820986 26.6832555,31.5546437 26.4932205,31.340718 C25.9783968,30.7614048 25.660321,30.2337378 25.5250568,29.770105 C25.473187,29.5925167 25.3305125,29.4560923 25.1507803,29.4122242 C24.9711166,29.3681858 24.7816095,29.4234023 24.6537186,29.5570525 C24.5256468,29.6906485 24.4786879,29.8824785 24.530569,30.060126 Z M27.4296859,33.5381918 C28.0501853,33.957614 28.7327783,34.2768562 29.4524548,34.4842213 C29.7266711,34.5600568 30.0107195,34.400499 30.0886291,34.1268648 C30.1665387,33.8532305 30.0091362,33.5679821 29.7360997,33.4880028 C29.1204184,33.3103902 28.5365819,33.0368388 28.0060844,32.6774197 C27.7689428,32.5341198 27.4610398,32.6026006 27.3069917,32.8329051 C27.1528794,33.0630212 27.2069156,33.3736395 27.4296859,33.5381918 Z M31.6987511,34.740449 C31.5130114,34.7498823 31.3364692,34.6590209 31.2361998,34.5023866 C31.1359304,34.3457523 31.1273241,34.1473869 31.2136506,33.9826569 C31.2999772,33.8179269 31.4679864,33.7121166 31.6538453,33.7054275 C32.302769,33.6729336 32.9449388,33.5581566 33.5649415,33.3638512 C33.7438613,33.3037112 33.9413282,33.3455421 34.0804939,33.4730646 C34.2197066,33.6004599 34.2787089,33.7934332 34.2345426,33.9768973 C34.1903764,34.1603614 34.050017,34.3053412 33.868079,34.3554243 C33.164257,34.5753792 32.4352781,34.7047626 31.6987511,34.740449 Z M35.9865804,33.4616787 C36.6154284,33.1234797 37.2213696,32.7443176 37.8004868,32.3266436 C38.018397,32.1551764 38.0628961,31.8426396 37.9015022,31.617167 C37.7398776,31.3917792 37.4295916,31.3333248 37.1970354,31.4844533 C36.6273774,31.8928874 36.0591767,32.2483088 35.4977164,32.5476207 C35.327365,32.6311851 35.2161658,32.8010223 35.2076955,32.9905768 C35.1992177,33.1799823 35.2948738,33.358892 35.4570917,33.4570333 C35.6194762,33.5552295 35.822498,33.5570107 35.9865804,33.4616787 Z M39.3909568,31.0639047 C39.9214042,30.5995212 40.4329963,30.1140314 40.9244975,29.6086077 C41.1157826,29.4022685 41.1077414,29.0810664 40.9063712,28.8845572 C40.7047371,28.6881689 40.3833016,28.6883306 40.1818652,28.8849215 C39.7096355,29.3702895 39.2183517,29.8367479 38.7091707,30.283198 C38.5033089,30.4737374 38.486321,30.7934502 38.670832,31.004732 C38.855343,31.2160138 39.1744315,31.2422333 39.3909568,31.0639047 Z M42.3765153,28.0082092 C42.8294444,27.4731315 43.2668142,26.9250752 43.6880769,26.3647265 C43.8470763,26.13577 43.7966248,25.8220773 43.5738538,25.6545213 C43.3510845,25.486882 43.0356347,25.5253878 42.8597318,25.7416915 C42.4511456,26.2860158 42.0265866,26.818165 41.5866089,27.3374446 C41.4158459,27.5567054 41.448177,27.8715824 41.6599339,28.0515666 C41.8717743,28.2316104 42.1879282,28.2124813 42.3765153,28.0082092 Z M44.9379726,24.600918 C45.3272583,24.0197829 45.7016864,23.4288315 46.0608932,22.8286383 C46.1315285,22.710799 46.1524306,22.5697166 46.1189966,22.4364589 C46.0855626,22.3032012 46.0005343,22.1886964 45.8826359,22.1181598 C45.7648652,22.0473947 45.6237831,22.0263809 45.4905015,22.0597526 C45.35722,22.0931242 45.2426861,22.1781403 45.1721574,22.2960527 C44.8213511,22.8816006 44.4557932,23.4581834 44.0758343,24.0252482 C43.9637168,24.1791769 43.9450076,24.3821805 44.0271027,24.5540082 C44.108889,24.7258047 44.2783032,24.8389106 44.4683281,24.8485835 C44.6585042,24.8586525 44.8388646,24.76354 44.9379726,24.600918 Z M47.0746003,21.0464302 C47.2800349,20.6644879 47.4796598,20.2794491 47.6734062,19.891447 C47.7819736,19.6389872 47.674812,19.3456654 47.4290687,19.2226488 C47.1833254,19.0996321 46.884286,19.1896136 46.7472337,19.4278142 C46.557944,19.8066389 46.3630878,20.1826564 46.1627284,20.5557445 C46.0975804,20.6766505 46.0831695,20.8184959 46.1226702,20.9500338 C46.1621708,21.0815717 46.2523425,21.192011 46.3733215,21.2570233 C46.4942423,21.3220969 46.6360616,21.3364673 46.7675782,21.2969731 C46.8990948,21.2574788 47.0095347,21.1673553 47.0746003,21.0464302 Z" id="Shape" fill="#CCCCCC"></path>
                                        <path d="M28.0413351,5.09837256 C26.6412369,5.09837256 25.5026495,3.95942076 25.5026494,2.55968686 C25.5026494,1.15958867 26.6412368,0.0206368767 28.0413351,0.0206368767 C29.4414333,0.0206368767 30.5803851,1.15958867 30.5803851,2.55968686 C30.5803851,3.95942069 29.4414333,5.09837249 28.0413351,5.09837256 Z M28.0413351,0.953185526 C27.155423,0.953185526 26.4351981,1.67331931 26.435198,2.55968686 C26.435198,3.44559896 27.1554229,4.16582384 28.0413351,4.16582391 C28.9277026,4.16582391 29.6474721,3.44559903 29.6474721,2.55968686 C29.6474721,1.67331931 28.9277026,0.953185526 28.0413351,0.953185526 Z" id="Shape" fill="#D8D8D8"></path>
                                    </g>
                                </g>
                            </g>
                        </g>
                    </g>
                </g>
            </g>
        </g>
    </g>
</svg>